<svg width="1280" height="668" viewBox="0 0 1280 668" fill="none" xmlns="http://www.w3.org/2000/svg">
<path d="M502.296 144.796C500.502 146.104 499.387 148.31 497.645 149.666C495.891 151.026 493.043 151.024 491.34 152.432C489.626 153.845 488.444 155.911 486.775 157.361C485.094 158.816 483.959 160.86 482.329 162.363C480.699 163.866 478.595 164.875 477.015 166.426C475.424 167.982 473.325 169.032 471.785 170.636C470.24 172.228 469.717 174.787 468.223 176.427C466.728 178.067 464.429 178.995 462.98 180.671C461.536 182.359 460.012 183.998 458.608 185.71C457.21 187.434 456.453 189.674 455.1 191.433C453.747 193.193 452.007 194.676 450.717 196.478C449.426 198.28 447.634 199.772 446.401 201.605C445.156 203.443 445.318 206.212 444.13 208.081C442.942 209.949 441.338 211.569 440.207 213.468C439.065 215.372 438.146 217.388 437.06 219.323C435.975 221.258 434.787 223.127 433.759 225.092C432.731 227.058 431.515 228.926 430.544 230.922C429.573 232.918 429.381 235.266 428.468 237.293C427.554 239.32 426.71 241.343 425.865 243.395C425.015 245.435 422.546 246.857 421.753 248.927C420.959 250.998 421.073 253.418 420.349 255.514C419.607 257.603 419.004 259.743 418.331 261.857C417.659 263.971 417.032 266.093 416.429 268.233C415.82 270.36 414.744 272.377 414.186 274.524C413.629 276.67 412.841 278.782 412.358 280.936C411.864 283.096 412.074 285.414 411.649 287.6C411.218 289.773 410.262 291.862 409.895 294.049C409.528 296.236 409.062 298.425 408.758 300.625C408.455 302.825 409.908 305.235 409.662 307.437C409.417 309.638 407.349 311.674 407.178 313.883C407.007 316.093 406.879 318.24 406.767 320.451C406.169 322.573 406.882 325.143 406.032 327.397C405.238 329.497 403.581 331.341 402.628 333.529C401.724 335.608 401.627 338.127 400.617 340.255C399.639 342.327 397.468 343.867 396.442 345.96C395.423 348.037 394.672 350.259 393.635 352.329C392.616 354.375 390.974 356.127 389.961 358.186C388.947 360.245 388.077 362.395 387.092 364.455C386.102 366.531 386.045 369.045 385.112 371.124C384.167 373.237 382.449 375.009 381.597 377.108C380.731 379.269 380.159 381.537 379.422 383.667C378.666 385.878 377.852 388.058 377.282 390.239C376.681 392.506 377.206 394.949 376.855 397.171C376.479 399.491 376.071 401.682 376.004 403.929C375.943 405.944 376.643 407.905 377.174 410.33C377.597 412.278 376.564 414.846 377.37 417.186C378.019 419.1 379.635 420.877 380.542 423.127C381.319 425.038 381.969 427.165 382.93 429.348C383.765 431.26 385.624 432.852 386.609 434.995C387.473 436.908 388.457 438.894 389.449 441.019C390.347 442.944 389.545 445.763 390.526 447.864C391.507 449.966 394.129 451.202 395.034 453.111C396.026 455.236 396.363 457.523 397.268 459.432C398.289 461.558 398.609 463.868 399.538 465.736C400.593 467.874 402.847 469.211 403.807 471.023C404.949 473.163 405.073 475.607 406.128 477.345C407.404 479.467 408.594 481.342 409.815 482.917C411.333 484.883 412.691 486.752 414.27 487.989C416.035 489.382 417.77 491.075 419.79 492.278C421.713 493.426 424.253 493.657 426.377 494.654C428.41 495.608 430.531 496.507 432.712 497.349C434.818 498.154 437.186 498.323 439.399 499.05C441.555 499.746 443.607 500.834 445.84 501.481C448.032 502.103 450.36 502.247 452.589 502.824C454.8 503.395 456.847 504.656 459.089 505.199C461.318 505.746 463.351 507.129 465.575 507.665C467.828 508.202 470.271 507.95 472.529 508.498C474.793 509.059 477.234 508.894 479.456 509.487C481.736 510.083 483.673 511.782 485.86 512.421C488.15 513.098 490.605 513.026 492.725 513.768C495.005 514.578 497.518 514.936 499.529 515.843C501.296 517.178 502.444 519.516 504.248 520.806C506.051 522.096 507.515 523.915 509.36 525.142C511.211 526.381 513.359 527.181 515.24 528.363C517.122 529.544 518.839 531.017 520.751 532.141C522.663 533.266 525.288 533.158 527.231 534.226C529.173 535.293 530.651 537.234 532.624 538.244C534.598 539.253 536.791 539.85 538.795 540.801C540.799 541.756 543.173 541.875 545.196 542.78C547.219 543.68 548.975 545.205 551.028 546.05C553.081 546.895 555.073 547.882 557.156 548.667C559.24 549.457 561.243 550.44 563.34 551.161C565.437 551.887 567.419 553.007 569.541 553.664C571.652 554.321 574.124 553.829 576.265 554.431C578.406 555.032 580.629 555.198 582.783 555.74C584.938 556.277 587.089 556.69 589.263 557.182C591.43 557.655 593.413 558.964 595.594 559.377C597.775 559.79 600.018 559.813 602.201 560.171C604.384 560.525 606.594 560.727 608.789 561.016C610.986 561.31 613.042 562.895 615.251 563.124C617.46 563.354 619.805 562.004 622.022 562.155C624.233 562.325 626.366 563.864 628.585 563.956C630.804 564.052 633.033 563.956 635.253 563.992C637.473 564.034 639.689 562.771 641.91 562.752C644.127 562.72 646.33 562.748 648.548 562.66C650.766 562.569 652.997 563.028 655.211 562.872C657.425 562.711 659.547 561.71 661.757 561.48C663.961 561.264 666.26 561.995 668.472 561.71C670.672 561.425 672.715 560.103 674.9 559.758C677.084 559.409 679.24 559.037 681.438 558.624C683.618 558.21 685.909 558.431 688.079 557.962C690.249 557.494 692.355 556.828 694.51 556.295C696.011 555.923 698.496 556.006 701.434 556.112C703.456 556.185 705.761 556.497 708.258 556.608C710.407 556.704 712.691 556.943 715.075 556.961C717.284 556.975 719.582 556.934 721.905 556.791C724.153 556.677 726.379 556.08 728.655 555.749C730.903 555.414 733.393 556.001 735.584 555.395C737.787 554.78 739.703 553.246 741.759 552.286C743.545 551.455 745.919 550.964 747.802 549.512C749.443 548.249 751.369 546.95 753.019 545.365C754.573 543.887 756.036 542.146 757.542 540.53C759.036 538.919 760.498 537.208 761.899 535.583C763.384 533.861 764.165 531.611 765.491 530.007C767.026 528.148 768.578 526.538 769.802 525.053C771.829 522.593 773.143 520.566 773.971 519.98C775.77 518.684 777.725 517.602 779.49 516.265C781.254 514.928 782.829 513.336 784.555 511.946C786.28 510.556 787.557 508.632 789.237 507.205C790.923 505.762 793.054 504.841 794.689 503.35C796.337 501.853 798.48 500.897 800.082 499.364C801.684 497.832 803.213 496.204 804.764 494.624C806.315 493.043 806.764 490.418 808.276 488.785C809.788 487.151 811.327 485.605 812.793 483.935C814.259 482.266 815.645 480.576 817.066 478.871C818.47 477.158 821.214 476.509 822.572 474.761C823.931 473.013 825.387 471.291 826.683 469.501C827.996 467.716 829.265 465.868 830.527 464.036C831.777 462.209 831.365 459.271 832.569 457.409C833.774 455.546 836.376 454.563 837.525 452.67C838.674 450.777 839.511 448.684 840.613 446.756C841.707 444.832 842.778 442.874 843.812 440.92C844.86 438.96 845.214 436.651 846.192 434.678C847.181 432.689 849.042 431.122 849.961 429.107C850.88 427.092 850.374 424.453 851.238 422.407C852.107 420.373 853.283 418.481 854.092 416.417C854.901 414.353 856.546 412.601 857.291 410.523C858.04 408.445 859.055 406.427 859.749 404.319C860.439 402.211 860.338 399.855 860.976 397.728C861.601 395.606 862.718 393.614 863.292 391.474C863.867 389.334 864.487 387.2 864.993 385.035C865.508 382.881 866.261 380.757 866.707 378.59C867.157 376.423 865.843 373.918 866.229 371.738C866.61 369.558 867.148 367.422 867.47 365.228C867.787 363.035 867.801 360.826 868.067 358.631C868.329 356.436 868.734 354.274 868.922 352.071C869.124 349.862 870.131 347.733 870.255 345.517C870.388 343.312 871.514 341.129 871.578 338.911C871.647 336.693 869.827 334.453 869.823 332.239C869.823 332.239 870.379 332.265 870.374 332.254C870.356 329.975 870.76 327.743 870.871 325.532C870.985 323.264 871.886 321.115 872.13 318.913C872.378 316.654 871.459 314.281 871.831 312.106C872.217 309.868 872.814 307.688 873.311 305.528C873.821 303.316 874.028 301.032 874.666 298.905C875.319 296.744 876.725 294.829 877.497 292.74C878.283 290.617 878.931 288.456 879.832 286.434C880.76 284.373 881.656 282.311 882.69 280.328C883.733 278.328 885.664 276.857 886.803 274.952C887.966 273.025 887.805 270.256 889.06 268.412C890.337 266.546 892.033 264.969 893.398 263.205C894.767 261.422 897.231 260.545 898.678 258.857C900.14 257.146 901.238 255.148 902.764 253.549C904.317 251.911 905.682 250.117 907.286 248.584C908.917 247.023 910.732 245.705 912.414 244.25C914.124 242.766 915.875 241.394 917.616 240.01C919.39 238.598 920.774 236.723 922.552 235.41C924.386 234.069 926.467 233.141 928.306 231.898C930.199 230.617 932.446 230.012 934.321 228.852C936.261 227.635 937.878 226.022 939.772 224.926C941.761 223.769 943.112 221.569 945.033 220.543C947.083 219.446 949.381 218.975 951.311 218.02C953.416 216.982 955.69 216.522 957.625 215.648C959.813 214.658 961.435 212.744 963.347 211.938C965.658 210.976 967.896 210.434 969.73 209.736C972.45 208.698 974.79 208.408 976.219 207.914C978.268 207.187 980.465 206.622 982.666 205.853C984.744 205.127 987.133 205.129 989.307 204.359C991.398 203.628 993.259 202.103 995.41 201.344C997.51 200.607 999.39 199.146 1001.54 198.388C1003.65 197.646 1005.87 197.167 1008.01 196.414C1010.14 195.667 1012.57 195.803 1014.7 195.055C1016.84 194.302 1018.65 192.63 1020.76 191.888C1022.91 191.13 1025.23 190.909 1027.33 190.172C1029.49 189.408 1031.48 188.292 1033.58 187.561C1035.75 186.791 1037.92 186.15 1040 185.424C1042.2 184.655 1044.29 183.785 1046.34 183.059C1048.56 182.279 1050.95 182.24 1052.97 181.524C1055.26 180.717 1057.37 179.905 1059.33 179.218C1061.74 178.367 1063.82 177.427 1065.65 176.776C1068.88 175.641 1071.15 175.025 1072.08 174.709C1074.13 174.011 1075.8 172.115 1077.92 171.286C1079.95 170.496 1082.18 170.116 1084.25 169.222C1086.26 168.355 1088.62 168.13 1090.64 167.171C1092.63 166.217 1094.66 165.258 1096.64 164.217C1098.61 163.187 1100.47 161.922 1102.41 160.804C1104.33 159.692 1106.22 158.485 1108.09 157.296C1109.98 156.102 1111.21 153.956 1113.02 152.684C1114.85 151.401 1117.03 150.632 1118.75 149.271C1120.52 147.887 1121.76 145.927 1123.4 144.477C1125.08 142.975 1127.16 141.977 1128.68 140.413C1130.27 138.788 1132.39 137.669 1133.76 135.973C1135.19 134.204 1135.77 131.849 1136.92 130.015C1138.13 128.089 1140.15 126.59 1141.02 124.597C1141.92 122.518 1141.51 119.997 1142 117.866C1142.5 115.689 1142.9 113.573 1142.91 111.353C1142.92 109.174 1143.21 106.898 1142.7 104.676C1142.21 102.6 1141.27 100.54 1140.28 98.4261C1139.3 96.3126 1137.5 94.89 1136.22 93.1858C1134.84 91.3688 1133.98 89.2413 1132.3 87.839C1130.59 86.4187 1128.51 85.5736 1126.52 84.5572C1124.57 83.5649 1122.37 83.3889 1120.2 82.7558C1118.11 82.1424 1116.14 81.1846 1113.89 80.8794C1111.73 80.5829 1109.56 80.6801 1107.28 80.641C1105.1 80.5988 1102.94 80.4933 1100.66 80.6515C1098.49 80.8065 1096.11 79.7273 1093.88 80.0663C1091.71 80.3896 1089.5 80.9203 1087.3 81.3759C1085.15 81.8331 1082.88 82.1478 1080.72 82.7263C1078.58 83.2939 1076.77 85.0934 1074.65 85.7713C1072.53 86.4437 1070.42 87.1106 1068.33 87.8707C1066.24 88.6308 1064.05 89.1623 1062 90.0046C1059.94 90.8523 1058.01 92.0109 1056 92.9181C1053.95 93.8418 1051.61 94.1314 1049.64 95.1091C1047.62 96.1205 1045.46 96.8555 1043.55 97.9044C1041.55 98.9917 1039.71 100.309 1037.85 101.418C1037.01 101.922 1035.57 104.097 1032.62 105.842C1030.96 106.828 1028.94 107.897 1026.74 109.194C1024.95 110.257 1022.37 110.332 1020.3 111.568C1018.46 112.653 1016.49 113.759 1014.46 114.961C1012.58 116.063 1010.88 117.616 1008.87 118.808C1006.98 119.932 1005.3 121.503 1003.31 122.672C1001.41 123.802 999.339 124.737 997.363 125.9C995.451 127.036 993.93 128.901 991.968 130.059C990.042 131.2 988.186 132.495 986.232 133.647C984.293 134.793 982.133 135.586 980.194 136.733C978.241 137.885 976.407 139.226 974.477 140.367C972.515 141.525 970.304 142.213 968.388 143.348C966.417 144.512 964.767 146.165 962.864 147.295C960.879 148.464 958.687 149.198 956.789 150.311C954.785 151.503 953.2 153.256 951.329 154.358C950.024 155.122 948.021 156.285 945.475 157.699C943.765 158.655 941.559 159.354 939.344 160.499C937.497 161.445 934.868 161.171 932.704 162.207C930.787 163.128 929.455 165.607 927.308 166.551C925.337 167.413 923.145 168.049 920.985 168.911C918.963 169.725 916.789 170.339 914.62 171.12C912.566 171.863 910.617 173.143 908.43 173.848C906.339 174.521 904.087 174.941 901.904 175.56C899.781 176.162 897.699 177.189 895.489 177.72C893.338 178.235 890.88 177.594 888.66 178.043C886.491 178.483 884.409 179.637 882.176 179.993C879.97 180.333 877.644 179.817 875.397 180.063C873.191 180.305 870.967 180.527 868.711 180.663C866.486 180.799 864.262 180.507 862.001 180.532C859.777 180.552 857.502 181.811 855.255 181.715C853.04 181.62 850.783 181.141 848.545 180.912C846.326 180.689 844.272 179.201 842.047 178.851C839.855 178.501 837.479 179.079 835.273 178.59C833.108 178.114 830.848 177.809 828.679 177.176C826.55 176.567 824.759 174.814 822.634 174.06C820.543 173.319 818.321 172.94 816.228 172.042C814.193 171.175 812.258 170.062 810.232 169.032C808.265 168.034 806.578 166.533 804.614 165.39C802.707 164.277 800.068 164.292 798.188 163.024C796.355 161.791 794.415 160.608 792.597 159.225C790.835 157.902 789.293 156.191 787.552 154.729L787.534 154.78C785.827 153.36 784.84 151.061 783.097 149.686C781.354 148.311 778.522 148.373 776.743 147.044C774.964 145.714 773.588 143.868 771.767 142.602C769.945 141.334 768.656 139.277 766.81 138.05C764.953 136.828 762.319 136.855 760.431 135.69C758.544 134.526 757.166 132.523 755.248 131.416C753.329 130.309 751.332 129.31 749.383 128.259C747.434 127.209 745.1 126.896 743.12 125.903C741.141 124.91 739.825 122.521 737.827 121.58C735.817 120.644 732.967 121.557 730.939 120.673C728.91 119.789 727.514 117.38 725.455 116.553C723.395 115.726 721.324 114.904 719.234 114.134C717.161 113.37 714.725 113.576 712.628 112.881C710.524 112.175 708.4 111.607 706.277 110.952C704.161 110.308 701.972 109.97 699.825 109.384C697.689 108.793 695.838 107.125 693.678 106.602C691.529 106.074 689.209 106.283 687.035 105.824C684.873 105.359 682.582 105.569 680.407 105.168C678.231 104.766 676.178 103.707 673.989 103.369C671.8 103.031 669.567 103.057 667.365 102.783C665.163 102.508 663.017 101.864 660.813 101.647C658.609 101.431 656.446 100.595 654.234 100.453C652.022 100.312 649.734 101.693 647.522 101.609C645.308 101.525 643.126 101.17 640.911 101.144C638.696 101.119 636.482 100.235 634.259 100.284C632.048 100.328 629.785 99.7391 627.572 99.8409C625.36 99.9427 623.179 100.816 620.97 100.988C618.762 101.159 616.629 102.138 614.419 102.368C612.226 102.604 609.994 102.601 607.805 102.906C605.61 103.199 603.522 104.058 601.331 104.421C599.153 104.779 596.919 104.805 594.744 105.233C592.569 105.66 590.319 105.68 588.154 106.159C585.994 106.651 583.977 107.691 581.827 108.235C580.846 108.493 578.341 108.273 575.152 108.244C573.227 108.226 570.997 108.322 568.585 108.303C566.515 108.281 564.299 108.313 562.025 108.344C559.878 108.372 557.704 108.985 555.509 109.093C553.301 109.206 550.946 107.531 548.823 107.763C546.554 108.019 544.309 108.48 542.279 108.911C539.945 109.427 538.087 110.993 536.301 111.825C534.245 112.783 532.099 113.612 530.214 114.905C528.34 116.192 526.685 117.793 524.985 119.3C523.266 120.83 521.911 122.676 520.376 124.321C518.781 126.022 517.12 127.582 515.711 129.282C514.193 131.119 513.236 133.266 511.931 134.975C510.409 136.956 507.888 137.931 506.644 139.525C504.824 141.846 503.633 143.801 502.385 144.712L502.296 144.796ZM411.525 377.456C411.979 379.717 413.543 381.719 414.067 383.976C414.585 386.222 413.422 388.879 414.023 391.115C414.617 393.34 416.029 395.355 416.676 397.569C417.335 399.778 418.737 401.741 419.46 403.934C420.178 406.115 420.257 408.523 421.044 410.7C421.826 412.866 421.957 415.292 422.803 417.443C423.655 419.576 425.798 421.193 426.72 423.322C427.63 425.428 427.567 427.988 428.547 430.09C429.528 432.191 430.426 434.331 431.472 436.389C432.511 438.463 434.281 440.14 435.373 442.175C436.478 444.205 437.152 446.478 438.31 448.469C439.474 450.471 440.147 452.773 441.364 454.736C442.58 456.699 445.219 457.757 446.489 459.681C447.758 461.605 448.638 463.797 449.961 465.682C451.302 467.573 452.814 469.313 454.197 471.141C455.59 472.994 456.866 474.9 458.296 476.708C459.799 478.58 460.644 480.973 460.878 483.008C461.153 485.468 460.428 488.235 457.596 488.726C455.994 489.001 453.431 488.781 450.481 487.825C448.124 487.065 446.358 484.629 444.1 483.866C441.721 483.059 439.126 483.139 436.94 482.285C434.576 481.357 432.303 480.471 430.233 479.406C427.945 478.243 425.851 476.974 424.045 475.557C422.87 474.632 421.923 472.572 420.401 470.137C419.384 468.51 418.54 466.487 417.387 464.323C416.433 462.523 414.825 460.885 413.791 458.793C412.862 456.925 412.407 454.693 411.431 452.632C410.521 450.712 409.695 448.666 408.742 446.623C407.832 444.674 405.327 443.412 404.384 441.392C403.442 439.373 404.214 436.583 403.305 434.633C402.351 432.591 401.42 430.594 400.545 428.658C399.599 426.569 397.311 425.19 396.47 423.267C395.525 421.12 395.427 418.764 394.661 416.876C393.743 414.603 392.063 412.841 391.475 410.999C390.587 408.268 391.355 405.867 391.396 404.361C391.47 402.068 391.489 399.686 392.062 397.175C392.582 394.917 393.915 392.809 394.723 390.403C395.474 388.18 396.158 385.875 397.068 383.535C397.935 381.316 397.914 378.695 398.841 376.391C400.004 373.519 401.912 372.243 403.153 371.193C405.35 369.341 406.917 369.726 408.619 371.505C410.023 372.981 411.067 375.096 411.548 377.445L411.525 377.456Z" fill="black"/>
</svg>
