<svg  viewBox="0 0 1303 1055" fill="none" xmlns="http://www.w3.org/2000/svg">
<path d="M275.433 141.304C271.531 144.151 269.103 148.956 265.313 151.907C261.496 154.869 255.3 154.864 251.594 157.93C247.863 161.008 245.292 165.507 241.659 168.663C238.001 171.832 235.532 176.283 231.985 179.556C228.438 182.828 223.86 185.025 220.423 188.402C216.961 191.791 212.393 194.076 209.042 197.569C205.679 201.036 204.542 206.608 201.29 210.179C198.037 213.75 193.035 215.772 189.881 219.421C186.739 223.096 183.424 226.665 180.369 230.393C177.326 234.147 175.678 239.024 172.734 242.855C169.79 246.687 166.004 249.916 163.196 253.84C160.388 257.764 156.488 261.014 153.805 265.004C151.096 269.007 151.449 275.036 148.864 279.105C146.279 283.174 142.788 286.701 140.328 290.836C137.842 294.983 135.842 299.371 133.48 303.585C131.119 307.799 128.534 311.868 126.297 316.148C124.06 320.428 121.412 324.495 119.3 328.842C117.187 333.189 116.77 338.301 114.782 342.715C112.793 347.128 110.957 351.533 109.118 356.001C107.268 360.443 101.896 363.54 100.17 368.048C98.444 372.557 98.6913 377.827 97.1154 382.39C95.502 386.94 94.1885 391.599 92.7251 396.203C91.2616 400.807 89.8987 405.427 88.5852 410.086C87.2598 414.719 84.9187 419.11 83.7058 423.785C82.4928 428.459 80.7772 433.056 79.7278 437.748C78.6529 442.451 79.1082 447.499 78.1832 452.257C77.2463 456.989 75.1659 461.539 74.3671 466.3C73.5682 471.062 72.5546 475.83 71.8938 480.62C71.2329 485.41 74.3961 490.659 73.8614 495.452C73.3266 500.246 68.8264 504.679 68.4553 509.49C68.0841 514.301 67.805 518.976 67.56 523.79C66.2601 528.411 67.8111 534.007 65.9607 538.916C64.2331 543.488 60.6277 547.504 58.5541 552.268C56.5879 556.795 56.3751 562.28 54.1788 566.914C52.0491 571.425 47.3259 574.779 45.0939 579.337C42.8755 583.858 41.2416 588.697 38.9857 593.204C36.769 597.661 33.1944 601.476 30.9896 605.959C28.7849 610.442 26.8903 615.123 24.7486 619.608C22.5933 624.13 22.469 629.604 20.4398 634.13C18.3833 638.731 14.6433 642.591 12.7896 647.16C10.9069 651.866 9.66149 656.805 8.05828 661.443C6.41243 666.257 4.64219 671.004 3.40193 675.754C2.09347 680.69 3.23549 686.009 2.47239 690.848C1.65298 695.899 0.765487 700.67 0.619277 705.563C0.48683 709.951 2.01088 714.221 3.16654 719.502C4.08561 723.743 1.83798 729.335 3.59185 734.431C5.00515 738.597 8.52148 742.467 10.4952 747.367C12.1863 751.527 13.5995 756.16 15.6909 760.912C17.5081 765.076 21.5528 768.544 23.6971 773.209C25.5773 777.374 27.7182 781.699 29.8761 786.326C31.8314 790.519 30.0863 796.656 32.2204 801.232C34.3544 805.809 40.0609 808.501 42.0298 812.657C44.1877 817.284 44.9225 822.264 46.8913 826.42C49.1123 831.049 49.8079 836.079 51.8296 840.147C54.1255 844.804 59.031 847.714 61.1192 851.659C63.6043 856.32 63.8755 861.641 66.17 865.427C68.9465 870.046 71.5357 874.13 74.1932 877.56C77.4964 881.84 80.452 885.909 83.8869 888.603C87.7289 891.636 91.5026 895.323 95.8987 897.942C100.083 900.442 105.61 900.946 110.233 903.117C114.656 905.194 119.272 907.151 124.018 908.984C128.601 910.738 133.753 911.106 138.569 912.689C143.26 914.205 147.726 916.574 152.584 917.981C157.355 919.336 162.42 919.651 167.27 920.907C172.082 922.149 176.537 924.896 181.414 926.077C186.266 927.269 190.689 930.28 195.529 931.448C200.431 932.617 205.747 932.068 210.661 933.262C215.587 934.482 220.898 934.123 225.734 935.416C230.696 936.713 234.911 940.412 239.669 941.804C244.651 943.278 249.994 943.121 254.607 944.737C259.569 946.5 265.037 947.281 269.413 949.256C273.258 952.163 275.757 957.254 279.681 960.062C283.605 962.87 286.79 966.832 290.806 969.503C294.834 972.201 299.507 973.944 303.601 976.517C307.696 979.09 311.432 982.297 315.593 984.745C319.754 987.194 325.464 986.959 329.692 989.283C333.919 991.607 337.135 995.834 341.429 998.034C345.723 1000.23 350.496 1001.53 354.857 1003.6C359.217 1005.68 364.384 1005.94 368.785 1007.91C373.187 1009.87 377.008 1013.19 381.476 1015.03C385.944 1016.87 390.277 1019.02 394.811 1020.73C399.345 1022.45 403.704 1024.59 408.267 1026.16C412.831 1027.74 417.143 1030.18 421.761 1031.61C426.354 1033.04 431.734 1031.97 436.393 1033.28C441.052 1034.59 445.888 1034.95 450.576 1036.13C455.264 1037.3 459.946 1038.2 464.675 1039.27C469.392 1040.3 473.706 1043.15 478.452 1044.05C483.198 1044.95 488.08 1045 492.83 1045.78C497.579 1046.55 502.388 1046.99 507.166 1047.62C511.945 1048.26 516.419 1051.71 521.226 1052.21C526.033 1052.71 531.136 1049.77 535.961 1050.1C540.772 1050.47 545.413 1053.82 550.241 1054.02C555.069 1054.23 559.92 1054.02 564.752 1054.1C569.583 1054.19 574.403 1051.44 579.238 1051.4C584.061 1051.33 588.854 1051.39 593.681 1051.2C598.507 1051 603.363 1052 608.181 1051.66C612.999 1051.31 617.615 1049.13 622.424 1048.63C627.22 1048.16 632.224 1049.75 637.037 1049.13C641.824 1048.51 646.269 1045.63 651.023 1044.88C655.776 1044.12 660.467 1043.31 665.25 1042.41C669.994 1041.51 674.979 1041.99 679.701 1040.97C684.424 1039.95 689.007 1038.5 693.695 1037.34C696.961 1036.53 702.37 1036.71 708.762 1036.94C713.162 1037.1 718.179 1037.78 723.612 1038.02C728.288 1038.23 733.259 1038.75 738.445 1038.79C743.252 1038.82 748.252 1038.73 753.308 1038.42C758.199 1038.17 763.043 1036.87 767.997 1036.15C772.888 1035.42 778.306 1036.7 783.074 1035.38C787.868 1034.04 792.036 1030.7 796.51 1028.61C800.396 1026.8 805.562 1025.73 809.661 1022.57C813.232 1019.82 817.423 1016.99 821.013 1013.54C824.395 1010.32 827.578 1006.53 830.854 1003.01C834.105 999.502 837.286 995.777 840.336 992.239C843.568 988.49 845.267 983.59 848.151 980.097C851.493 976.049 854.87 972.544 857.532 969.31C861.944 963.954 864.803 959.539 866.605 958.263C870.519 955.442 874.773 953.085 878.613 950.174C882.453 947.262 885.88 943.797 889.635 940.77C893.39 937.743 896.167 933.553 899.823 930.447C903.493 927.304 908.129 925.298 911.688 922.051C915.273 918.792 919.936 916.711 923.422 913.373C926.908 910.036 930.236 906.492 933.611 903.05C936.986 899.609 937.963 893.893 941.253 890.336C944.543 886.779 947.891 883.412 951.082 879.776C954.273 876.141 957.289 872.462 960.381 868.748C963.436 865.02 969.406 863.606 972.362 859.799C975.318 855.993 978.487 852.243 981.307 848.345C984.164 844.46 986.925 840.434 989.671 836.445C992.392 832.468 991.494 826.07 994.116 822.015C996.738 817.96 1002.4 815.818 1004.9 811.696C1007.4 807.574 1009.22 803.018 1011.62 798.818C1014 794.629 1016.33 790.365 1018.58 786.11C1020.86 781.843 1021.63 776.816 1023.76 772.52C1025.91 768.187 1029.96 764.777 1031.96 760.389C1033.96 756.001 1032.86 750.254 1034.74 745.8C1036.63 741.371 1039.19 737.251 1040.95 732.756C1042.71 728.261 1046.29 724.446 1047.91 719.922C1049.54 715.398 1051.75 711.003 1053.26 706.413C1054.76 701.822 1054.54 696.692 1055.93 692.061C1057.29 687.441 1059.72 683.103 1060.97 678.442C1062.22 673.782 1063.57 669.136 1064.67 664.421C1065.79 659.731 1067.43 655.107 1068.4 650.388C1069.38 645.669 1066.52 640.215 1067.36 635.467C1068.19 630.72 1069.36 626.069 1070.06 621.292C1070.75 616.516 1070.78 611.708 1071.36 606.928C1071.93 602.148 1072.81 597.439 1073.22 592.642C1073.66 587.833 1075.85 583.198 1076.12 578.372C1076.41 573.571 1078.86 568.817 1079 563.988C1079.15 559.158 1075.19 554.279 1075.18 549.458C1075.18 549.458 1076.39 549.516 1076.38 549.491C1076.34 544.53 1077.22 539.67 1077.46 534.855C1077.71 529.915 1079.67 525.236 1080.2 520.442C1080.74 515.522 1078.74 510.356 1079.55 505.62C1080.39 500.746 1081.69 495.999 1082.77 491.295C1083.88 486.48 1084.33 481.507 1085.72 476.875C1087.14 472.169 1090.2 467.999 1091.88 463.451C1093.59 458.828 1095 454.122 1096.96 449.72C1098.98 445.232 1100.93 440.742 1103.18 436.424C1105.45 432.069 1109.65 428.865 1112.13 424.717C1114.66 420.521 1114.31 414.491 1117.04 410.477C1119.82 406.413 1123.51 402.98 1126.48 399.137C1129.46 395.255 1134.82 393.345 1137.97 389.67C1141.15 385.945 1143.54 381.594 1146.86 378.113C1150.24 374.545 1153.21 370.639 1156.7 367.301C1160.25 363.902 1164.2 361.032 1167.86 357.863C1171.58 354.633 1175.39 351.645 1179.18 348.632C1183.04 345.557 1186.05 341.474 1189.92 338.614C1193.91 335.694 1198.44 333.673 1202.44 330.968C1206.56 328.178 1211.45 326.86 1215.53 324.334C1219.75 321.685 1223.27 318.172 1227.39 315.786C1231.72 313.267 1234.66 308.475 1238.84 306.242C1243.3 303.853 1248.3 302.828 1252.5 300.747C1257.08 298.487 1262.03 297.487 1266.24 295.583C1271 293.428 1274.53 289.259 1278.69 287.505C1283.72 285.409 1288.59 284.229 1292.58 282.71C1298.5 280.449 1303.59 279.818 1306.7 278.742C1311.16 277.16 1315.94 275.928 1320.73 274.254C1325.25 272.674 1330.45 272.678 1335.18 271.002C1339.73 269.41 1343.78 266.088 1348.46 264.436C1353.03 262.832 1357.12 259.65 1361.8 257.999C1366.4 256.383 1371.23 255.341 1375.88 253.702C1380.51 252.074 1385.81 252.37 1390.44 250.743C1395.09 249.103 1399.03 245.462 1403.63 243.846C1408.3 242.195 1413.34 241.714 1417.91 240.11C1422.62 238.446 1426.96 236.016 1431.51 234.424C1436.24 232.748 1440.97 231.351 1445.49 229.771C1450.28 228.097 1454.82 226.201 1459.28 224.62C1464.12 222.922 1469.31 222.837 1473.72 221.279C1478.69 219.522 1483.28 217.754 1487.56 216.256C1492.8 214.405 1497.32 212.358 1501.3 210.939C1508.33 208.469 1513.28 207.127 1515.29 206.438C1519.75 204.919 1523.39 200.791 1528 198.986C1532.42 197.264 1537.27 196.438 1541.78 194.491C1546.16 192.604 1551.28 192.113 1555.69 190.025C1560.01 187.947 1564.43 185.859 1568.75 183.592C1573.03 181.349 1577.07 178.595 1581.29 176.161C1585.48 173.739 1589.58 171.112 1593.66 168.523C1597.77 165.922 1600.45 161.25 1604.38 158.48C1608.37 155.686 1613.1 154.011 1616.85 151.047C1620.71 148.035 1623.39 143.767 1626.96 140.608C1630.63 137.339 1635.16 135.166 1638.46 131.76C1641.91 128.22 1646.53 125.784 1649.51 122.092C1652.63 118.24 1653.88 113.112 1656.38 109.117C1659.03 104.923 1663.42 101.661 1665.32 97.3211C1667.28 92.7936 1666.37 87.304 1667.45 82.6638C1668.54 77.923 1669.41 73.3151 1669.42 68.4819C1669.45 63.7374 1670.07 58.7816 1668.96 53.943C1667.91 49.4214 1665.85 44.9353 1663.71 40.3333C1661.56 35.7312 1657.66 32.6335 1654.87 28.9225C1651.87 24.9661 1649.99 20.3335 1646.33 17.28C1642.61 14.1874 1638.08 12.3472 1633.75 10.1338C1629.51 7.97318 1624.72 7.58994 1620 6.21145C1615.46 4.87564 1611.18 2.79006 1606.27 2.12559C1601.58 1.47992 1596.85 1.6915 1591.89 1.60641C1587.15 1.51462 1582.44 1.28475 1577.49 1.62917C1572.77 1.96686 1567.59 -0.383128 1562.74 0.354965C1558.02 1.05906 1553.21 2.21463 1548.41 3.20673C1543.74 4.20222 1538.8 4.88755 1534.1 6.14719C1529.44 7.38301 1525.51 11.3015 1520.88 12.7776C1516.27 14.2418 1511.69 15.694 1507.14 17.3491C1502.59 19.0041 1497.83 20.1615 1493.37 21.9956C1488.88 23.8415 1484.67 26.3642 1480.3 28.3397C1475.85 30.351 1470.76 30.9816 1466.46 33.1106C1462.07 35.3128 1457.37 36.9133 1453.21 39.1974C1448.86 41.5649 1444.85 44.4335 1440.81 46.8471C1438.99 47.9458 1435.84 52.6808 1429.43 56.4809C1425.82 58.6288 1421.43 60.9571 1416.64 63.7795C1412.74 66.096 1407.12 66.2579 1402.62 68.9491C1398.62 71.3133 1394.33 73.72 1389.91 76.338C1385.83 78.738 1382.12 82.1197 1377.76 84.7139C1373.64 87.1633 1369.98 90.5841 1365.65 93.1289C1361.51 95.5902 1357.01 97.6254 1352.71 100.158C1348.55 102.631 1345.24 106.693 1340.97 109.214C1336.78 111.699 1332.74 114.517 1328.49 117.026C1324.27 119.523 1319.57 121.249 1315.35 123.747C1311.1 126.255 1307.11 129.175 1302.91 131.66C1298.64 134.181 1293.83 135.678 1289.66 138.151C1285.37 140.684 1281.78 144.284 1277.64 146.745C1273.32 149.29 1268.55 150.889 1264.42 153.312C1260.06 155.907 1256.61 159.725 1252.54 162.125C1249.7 163.789 1245.34 166.32 1239.8 169.399C1236.08 171.481 1231.28 173.003 1226.46 175.496C1222.44 177.557 1216.72 176.959 1212.01 179.215C1207.84 181.222 1204.94 186.62 1200.27 188.675C1195.98 190.552 1191.21 191.936 1186.51 193.814C1182.11 195.587 1177.38 196.922 1172.66 198.623C1168.19 200.242 1163.95 203.029 1159.19 204.564C1154.64 206.03 1149.74 206.944 1144.99 208.291C1140.37 209.603 1135.84 211.839 1131.03 212.995C1126.35 214.117 1121 212.721 1116.17 213.699C1111.45 214.656 1106.92 217.17 1102.06 217.945C1097.26 218.685 1092.2 217.562 1087.31 218.097C1082.51 218.623 1077.67 219.108 1072.76 219.403C1067.92 219.7 1063.08 219.063 1058.16 219.118C1053.32 219.162 1048.37 221.904 1043.48 221.695C1038.66 221.487 1033.75 220.444 1028.88 219.945C1024.05 219.46 1019.58 216.22 1014.74 215.457C1009.97 214.696 1004.8 215.955 1000 214.89C995.287 213.852 990.371 213.188 985.651 211.81C981.017 210.484 977.121 206.667 972.496 205.026C967.947 203.412 963.11 202.586 958.557 200.632C954.129 198.744 949.917 196.319 945.51 194.078C941.228 191.904 937.557 188.636 933.284 186.146C929.135 183.723 923.392 183.756 919.302 180.994C915.312 178.31 911.091 175.734 907.135 172.723C903.302 169.841 899.945 166.115 896.158 162.932L896.117 163.044C892.403 159.952 890.255 154.946 886.462 151.952C882.67 148.958 876.508 149.093 872.637 146.198C868.765 143.303 865.771 139.283 861.808 136.525C857.844 133.766 855.039 129.285 851.023 126.613C846.981 123.953 841.25 124.011 837.142 121.476C833.034 118.94 830.036 114.58 825.862 112.169C821.687 109.758 817.342 107.582 813.101 105.295C808.86 103.008 803.78 102.327 799.472 100.164C795.165 98.0022 792.303 92.8 787.955 90.7502C783.581 88.7123 777.38 90.7009 772.966 88.7755C768.551 86.85 765.513 81.6052 761.032 79.8042C756.551 78.0031 752.044 76.214 747.496 74.5373C742.985 72.8743 737.685 73.3225 733.12 71.8095C728.543 70.2708 723.92 69.0339 719.302 67.6077C714.696 66.2071 709.933 65.4711 705.261 64.1949C700.614 62.9067 696.586 59.2755 691.885 58.1373C687.209 56.9872 682.161 57.4424 677.43 56.4422C672.725 55.4302 667.741 55.8871 663.007 55.013C658.273 54.139 653.805 51.8335 649.042 51.0975C644.279 50.3615 639.419 50.4179 634.627 49.8199C629.835 49.2219 625.166 47.8196 620.371 47.3478C615.575 46.8759 610.867 45.0561 606.055 44.7478C601.242 44.4395 596.263 47.4459 591.448 47.2638C586.632 47.0816 581.882 46.3081 577.063 46.2521C572.244 46.196 567.425 44.2722 562.588 44.3798C557.777 44.4754 552.853 43.1923 548.038 43.4141C543.224 43.6358 538.477 45.5379 533.672 45.9113C528.866 46.2848 524.226 48.417 519.417 48.9166C514.645 49.4297 509.787 49.4231 505.023 50.088C500.248 50.7273 495.704 52.5971 490.937 53.388C486.196 54.1671 481.336 54.2235 476.603 55.1542C471.871 56.085 466.973 56.1278 462.262 57.1727C457.563 58.2431 453.173 60.5084 448.496 61.6931C446.361 62.2531 440.909 61.7759 433.97 61.7124C429.781 61.6736 424.929 61.8817 419.681 61.8392C415.176 61.7917 410.354 61.8618 405.405 61.9284C400.734 61.99 396.002 63.3247 391.226 63.5601C386.423 63.8074 381.298 60.1588 376.678 60.6634C371.741 61.2226 366.855 62.2249 362.437 63.1642C357.358 64.2874 353.315 67.698 349.429 69.5101C344.955 71.5963 340.287 73.3996 336.184 76.2154C332.107 79.0193 328.504 82.505 324.805 85.7862C321.066 89.1167 318.117 93.1378 314.776 96.719C311.305 100.423 307.691 103.82 304.625 107.522C301.323 111.521 299.239 116.197 296.399 119.918C293.088 124.232 287.603 126.354 284.896 129.826C280.934 134.879 278.344 139.137 275.627 141.12L275.433 141.304ZM77.9141 647.918C78.9029 652.842 82.3049 657.201 83.4453 662.116C84.5738 667.006 82.0432 672.792 83.349 677.662C84.6428 682.505 87.7159 686.893 89.1239 691.715C90.5575 696.524 93.6085 700.798 95.1818 705.574C96.7432 710.324 96.9156 715.566 98.6286 720.308C100.33 725.024 100.615 730.307 102.456 734.989C104.31 739.634 108.972 743.156 110.978 747.792C112.96 752.377 112.821 757.951 114.955 762.528C117.089 767.104 119.044 771.764 121.319 776.244C123.581 780.761 127.432 784.412 129.809 788.844C132.213 793.264 133.68 798.213 136.2 802.548C138.731 806.908 140.197 811.921 142.844 816.195C145.491 820.47 151.233 822.773 153.996 826.963C156.759 831.153 158.674 835.925 161.552 840.03C164.469 844.148 167.76 847.936 170.769 851.918C173.801 855.951 176.578 860.103 179.688 864.038C182.959 868.115 184.798 873.327 185.308 877.758C185.907 883.113 184.329 889.14 178.166 890.209C174.679 890.807 169.102 890.327 162.684 888.246C157.555 886.591 153.712 881.286 148.798 879.625C143.621 877.868 137.975 878.042 133.217 876.183C128.073 874.162 123.128 872.234 118.623 869.915C113.644 867.381 109.088 864.619 105.159 861.533C102.602 859.519 100.541 855.033 97.2277 849.73C95.0149 846.187 93.1791 841.782 90.6701 837.07C88.5938 833.151 85.0945 829.585 82.8462 825.03C80.8245 820.962 79.834 816.101 77.7102 811.613C75.7294 807.432 73.9327 802.978 71.8583 798.53C69.8793 794.286 64.4267 791.537 62.3761 787.139C60.3255 782.742 62.0058 776.667 60.0267 772.422C57.9523 767.974 55.9255 763.627 54.0214 759.411C51.9624 754.861 46.9836 751.86 45.1545 747.671C43.0989 742.996 42.8856 737.866 41.2183 733.756C39.2207 728.805 35.5647 724.969 34.2859 720.959C32.3534 715.012 34.0232 709.783 34.1127 706.504C34.2743 701.511 34.3149 696.325 35.5622 690.856C36.6934 685.94 39.5952 681.35 41.3536 676.11C42.9876 671.27 44.475 666.25 46.4567 661.155C48.3428 656.323 48.2967 650.617 50.3141 645.599C52.8448 639.345 56.9969 636.568 59.697 634.282C64.4766 630.248 67.8864 631.086 71.5919 634.961C74.6465 638.174 76.9186 642.779 77.9653 647.894L77.9141 647.918Z" fill="black"/>
</svg>

