<svg xmlns="http://www.w3.org/2000/svg" aria-hidden="true" style="position:absolute;width:0;height:0;overflow:hidden">
   <defs>

      <symbol id="close" viewBox="0 0 15 16">
         <path d="M0.974088 13.9058L2 15.0001L14.7303 1.42103L13.7044 0.326719L0.974088 13.9058Z" fill="white"/>
         <path d="M13.9741 15.0944L15 14.0001L2.26965 0.421026L1.24374 1.51533L13.9741 15.0944Z" fill="white"/>
      </symbol>

      <symbol id="promoBg" viewBox="0 0 857 383">
         <path d="M553 78H270.477L235.5 33H80L0.5 109L89.5 360.247H270.477L263.753 383H580L588.5 360.247H776.5L828.5 288.5L856.5 38L666.5 0L553 78Z" fill="#FFEE02"/>
      </symbol>

      <symbol id="arr-left" viewBox="0 0 9 16">
         <path d="M7.5 1.4165L1.57407 7.83626L7.5 14.256"  stroke-width="2" stroke-linecap="round" stroke-linejoin="round"/>
      </symbol>

      <symbol id="arr-right" viewBox="0 0 9 16">
         <path d="M1.5 14.2563L7.42593 7.8366L1.5 1.41684"  stroke-width="2" stroke-linecap="round" stroke-linejoin="round"/>
      </symbol>

      <symbol id="plus" viewBox="0 0 14 14">
         <path d="M1.54583 7.5625H6.14125V12.1579C6.14125 12.625 6.52546 13.0167 7.00007 13.0167C7.47468 13.0167 7.85889 12.625 7.85889 12.1579V7.5625H12.4543C12.9214 7.5625 13.3131 7.17829 13.3131 6.70368C13.3131 6.22907 12.9214 5.84487 12.4543 5.84487H7.85889V1.24944C7.85889 0.782366 7.47468 0.390625 7.00007 0.390625C6.52546 0.390625 6.14125 0.782366 6.14125 1.24944V5.84487H1.54583C1.07875 5.84487 0.687012 6.22907 0.687012 6.70368C0.687012 7.17829 1.07875 7.5625 1.54583 7.5625Z"/>
      </symbol>

      <symbol id="vk" viewBox="0 0 17 10">
         <path d="M13.19 9.99244C12.65 8.08244 11.02 6.67244 9.05002 6.42244V9.99244H8.74002C3.27002 9.99244 0.15002 6.24244 0.0200195 0.00244141H2.76002C2.85002 4.58244 4.87002 6.52244 6.47002 6.92244V0.00244141H9.05002V3.95244C10.63 3.78244 12.29 1.98244 12.85 0.00244141H15.43C15 2.08244 13.73 3.88244 11.92 4.98244C13.94 5.99244 15.44 7.81244 16.03 9.99244H13.19Z" />
      </symbol>

      <symbol id="telegram" viewBox="0 0 15 13">
         <path d="M14.1638 1.47287C13.9638 3.53287 13.1138 8.54287 12.6838 10.8529C12.5038 11.8329 12.1438 12.1629 11.7938 12.1929C11.0338 12.2629 10.4638 11.6929 9.72385 11.2129C8.57385 10.4629 7.92385 9.99287 6.81385 9.25287C5.52385 8.40287 6.36384 7.93287 7.09384 7.17287C7.28384 6.97287 10.6238 3.93287 10.6938 3.66287C10.6938 3.63287 10.7138 3.50287 10.6338 3.43287C10.5538 3.36287 10.4438 3.39287 10.3638 3.40287C10.2438 3.43287 8.41385 4.64287 4.86385 7.04287C4.34385 7.40287 3.87385 7.57287 3.44385 7.56287C2.97385 7.55287 2.08384 7.30287 1.41384 7.08287C0.593844 6.81287 -0.0561554 6.67287 0.00384457 6.22287C0.0338446 5.99287 0.353846 5.74287 0.973846 5.50287C4.77385 3.84287 7.31385 2.75287 8.58385 2.22287C12.2038 0.712872 12.9638 0.452871 13.4538 0.442871C13.5638 0.442871 13.8038 0.472871 13.9638 0.592871C14.0938 0.702871 14.1338 0.842871 14.1538 0.942871C14.1738 1.04287 14.1938 1.27287 14.1738 1.45287L14.1638 1.47287Z"/>
      </symbol>

   </defs>
</svg> 